<svg width="209" height="48" viewBox="0 0 209 48" fill="none" xmlns="http://www.w3.org/2000/svg">
<rect width="209" height="48" rx="24" fill="black"/>
<path d="M26.632 32V15.2H29.704V29.6H37.144V32H26.632ZM39.8508 32V15.2H42.9228V32H39.8508ZM46.1789 32V15.2H49.2509L57.1469 27.032V15.2H60.2189V32H57.1469L49.2509 20.192V32H46.1789ZM70.8198 32.288C69.2358 32.288 67.8518 31.928 66.6678 31.208C65.4838 30.488 64.5638 29.488 63.9078 28.208C63.2518 26.912 62.9238 25.408 62.9238 23.696C62.9238 21.968 63.2598 20.448 63.9318 19.136C64.6198 17.808 65.5878 16.776 66.8358 16.04C68.0998 15.288 69.5958 14.912 71.3238 14.912C73.2918 14.912 74.9238 15.384 76.2198 16.328C77.5158 17.272 78.3558 18.576 78.7398 20.24H75.3078C75.0518 19.456 74.5878 18.848 73.9158 18.416C73.2438 17.968 72.3798 17.744 71.3238 17.744C69.6438 17.744 68.3478 18.28 67.4358 19.352C66.5238 20.408 66.0678 21.864 66.0678 23.72C66.0678 25.576 66.5158 27.016 67.4118 28.04C68.3238 29.048 69.5558 29.552 71.1078 29.552C72.6278 29.552 73.7718 29.144 74.5398 28.328C75.3238 27.496 75.7958 26.408 75.9557 25.064H71.7078V22.76H79.0518V32H76.2198L75.9798 29.792C75.4358 30.592 74.7558 31.208 73.9398 31.64C73.1238 32.072 72.0838 32.288 70.8198 32.288ZM89.9103 32.288C88.2303 32.288 86.7583 31.92 85.4943 31.184C84.2463 30.448 83.2623 29.432 82.5423 28.136C81.8383 26.824 81.4863 25.312 81.4863 23.6C81.4863 21.888 81.8383 20.384 82.5423 19.088C83.2623 17.776 84.2463 16.752 85.4943 16.016C86.7583 15.28 88.2303 14.912 89.9103 14.912C91.5743 14.912 93.0383 15.28 94.3023 16.016C95.5663 16.752 96.5503 17.776 97.2543 19.088C97.9583 20.384 98.3103 21.888 98.3103 23.6C98.3103 25.312 97.9583 26.824 97.2543 28.136C96.5503 29.432 95.5663 30.448 94.3023 31.184C93.0383 31.92 91.5743 32.288 89.9103 32.288ZM89.9103 29.528C91.5103 29.528 92.7823 29 93.7263 27.944C94.6863 26.888 95.1663 25.44 95.1663 23.6C95.1663 21.76 94.6863 20.312 93.7263 19.256C92.7823 18.2 91.5103 17.672 89.9103 17.672C88.3103 17.672 87.0303 18.2 86.0703 19.256C85.1103 20.312 84.6303 21.76 84.6303 23.6C84.6303 25.44 85.1103 26.888 86.0703 27.944C87.0303 29 88.3103 29.528 89.9103 29.528ZM101.023 32V15.2H104.671L110.023 25.856L115.303 15.2H118.951V32H115.879V20.408L111.199 29.6H108.775L104.095 20.408V32H101.023ZM121.13 32L127.274 15.2H130.73L136.874 32H133.61L132.266 28.112H125.714L124.346 32H121.13ZM126.554 25.712H131.426L128.978 18.728L126.554 25.712ZM141.169 32V17.672H136.273V15.2H149.161V17.672H144.241V32H141.169ZM158.435 32.288C156.739 32.288 155.283 31.928 154.067 31.208C152.851 30.472 151.915 29.456 151.259 28.16C150.603 26.848 150.275 25.336 150.275 23.624C150.275 21.912 150.603 20.4 151.259 19.088C151.915 17.776 152.851 16.752 154.067 16.016C155.283 15.28 156.739 14.912 158.435 14.912C160.451 14.912 162.099 15.416 163.379 16.424C164.675 17.416 165.483 18.816 165.803 20.624H162.419C162.211 19.712 161.763 19 161.075 18.488C160.403 17.96 159.507 17.696 158.387 17.696C156.835 17.696 155.619 18.224 154.739 19.28C153.859 20.336 153.419 21.784 153.419 23.624C153.419 25.464 153.859 26.912 154.739 27.968C155.619 29.008 156.835 29.528 158.387 29.528C159.507 29.528 160.403 29.288 161.075 28.808C161.763 28.312 162.211 27.632 162.419 26.768H165.803C165.483 28.496 164.675 29.848 163.379 30.824C162.099 31.8 160.451 32.288 158.435 32.288ZM168.523 32V15.2H171.595V22.184H179.131V15.2H182.203V32H179.131V24.68H171.595V32H168.523Z" fill="white"/>
</svg>
